<svg width="512" height="128" version="1.1" xmlns="http://www.w3.org/2000/svg" xmlns:xlink="http://www.w3.org/1999/xlink">
	<defs>
		<symbol id="complet" viewBox="0 0 32 32">
			<path d="m24 4v4h-16v-4zm0 6v2h-16v-2zm0 4v2h-16v-2zm0 4v2h-16v-2zm0 4v2h-10.4c-1.81-0.479-3.72-0.486-5.56-0.0488v-1.95zm0 4v1.2c-1.85 1.18-4.25 1.04-5.88-0.59-0.215-0.215-0.44-0.414-0.668-0.605zm3-26a1 1 0 0 1 1 1v27.7a1 1 0 0 1-0.293 0.707c-3.42 3.42-8.99 3.42-12.4 0-2.66-2.66-6.93-2.66-9.59 0a1 1 0 0 1-1.71-0.707v-27.7a1 1 0 0 1 1-1zm-1 2h-20v24.9c3.38-2.06 7.79-1.79 10.7 1.13 2.57 2.57 6.63 2.6 9.29 0.195z"/>
		</symbol>
		<symbol id="blank" viewBox="0 0 32 32">
			<path d="m16 5e-6v4h9.17l-12.5 12.5 2.83 2.83 12.5-12.5v9.17h4v-16zm-16 4v28h28v-12h-4v8h-20v-20h8v-4z"/>
		</symbol>
		<symbol id="home1" viewBox="0 0 32 32">
			<path d="m16 5e-6 -16 8v4.57l16-8 16 8v-4.57l-4.57-2.29v-5.71h-4.57v3.43zm0 6.86-13.7 6.86v18.3h16v-13.7h6.86v13.7h4.57v-18.3zm-9.14 11.4h6.86v6.86h-6.86z"/>
		</symbol>
		<symbol id="alarm" viewBox="0 0 32 32">
			<path class="icon-alarm" d="m9.2 0.00728c-1.26-0.0591-2.5 0.243-3.59 0.872-3.14 1.81-4.21 5.83-2.4 8.96l11.4-6.56c-1.12-1.93-3.14-3.17-5.37-3.27m13.6 0c-2.23 0.106-4.26 1.34-5.37 3.27l11.4 6.56c1.81-3.14 0.737-7.15-2.4-8.96-1.09-0.629-2.34-0.931-3.59-0.872m-6.8 5.74c-7.25 0-13.1 5.88-13.1 13.1 0.00652 2.72 0.859 5.38 2.44 7.59l-1.8 1.8c-0.854 0.854-0.854 2.24 0 3.09 0.854 0.854 2.24 0.854 3.09 0l1.79-1.79c2.22 1.58 4.87 2.43 7.6 2.44 2.72-5e-3 5.38-0.859 7.59-2.44l1.8 1.8c0.854 0.853 2.24 0.853 3.09 0 0.853-0.854 0.853-2.24 0-3.09l-1.79-1.79c1.58-2.22 2.43-4.87 2.44-7.6 0-7.25-5.88-13.1-13.1-13.1v-1e-3m0 4.37c4.83 0 8.75 3.92 8.75 8.75s-3.92 8.75-8.75 8.75-8.75-3.92-8.75-8.75 3.92-8.75 8.75-8.75m-2.19 2.19v7.47s3.92 3.92 3.92 3.92l3.09-3.1s-2.64-2.64-2.64-2.64v-5.66h-4.37"/>
		</symbol>
		<symbol id="cancel" viewBox="0 0 32 32">
			<path d="m32 7.03e-4m-2.1 5.29c0-2.46-2.66-4-4.79-2.77-0.255 0.147-0.488 0.329-0.693 0.54l-9.46 9.46-9.46-9.46c-1.7-1.77-4.69-1.04-5.37 1.32-0.33 1.14-0.0011 2.37 0.856 3.19l9.46 9.46-9.46 9.46c-1.77 1.7-1.04 4.69 1.32 5.37 1.14 0.33 2.37 1e-3 3.19-0.856l9.46-9.46 9.46 9.46c1.71 1.76 4.7 1.01 5.37-1.36 0.0895-0.313 0.129-0.639 0.119-0.965-0.0245-0.83-0.372-1.62-0.967-2.2l-9.46-9.46 9.46-9.46c0.62-0.602 0.969-1.43 0.969-2.29" data-unicode="X"/>
		</symbol>
		<symbol id="comment_add" viewBox="0 0 32 32">
			<path d="m14 6v5h-5v4h5v5h4v-5h5v-4h-5v-5h-4m-5-6c-4.4 0-8 3.6-8 8v10c0 3.69 2.59 6.68 6 7.59v4.41c1e-3 1.54 1.67 2.5 3 1.73 0.068-0.039 0.134-0.083 0.197-0.13l7.47-5.6h5.33c4.4 0 8-3.6 8-8v-10c0-4.4-3.6-8-8-8h-14m0 4h14c2.25 0 4 1.75 4 4v10c0 2.25-1.75 4-4 4h-6c-0.433 0-0.853 0.141-1.2 0.4l-4.8 3.6v-2c0-1.1-0.895-2-2-2-2.25 0-4-1.75-4-4v-10c0-2.25 1.75-4 4-4" data-unicode="F"/>
		</symbol>
		<symbol id="comment_delete" viewBox="0 0 32 32">
			<path d="m9 11v4h14v-4h-14m0-11c-4.4 0-8 3.6-8 8v10c0 3.69 2.59 6.68 6 7.59v4.41c1e-3 1.65 1.88 2.59 3.2 1.6l7.47-5.6h5.33c4.4 0 8-3.6 8-8v-10c0-4.4-3.6-8-8-8h-14m0 4h14c2.25 0 4 1.75 4 4v10c0 2.25-1.75 4-4 4h-6c-0.433 0-0.853 0.141-1.2 0.4l-4.8 3.6v-2c0-1.1-0.895-2-2-2-2.25 0-4-1.75-4-4v-10c0-2.25 1.75-4 4-4" data-unicode="G"/>
		</symbol>
		<symbol id="comment_list" viewBox="0 0 32 32">
			<path class="icon-comment-list" d="m7 16v2h18v-2h-18m0-4v2h18v-2h-18m0-4v2h18v-2h-18m2-8c-4.4 0-8 3.6-8 8v10c0 3.69 2.59 6.68 6 7.59v4.41c1e-3 1.65 1.88 2.59 3.2 1.6l7.47-5.6h5.33c4.4 0 8-3.6 8-8v-10c0-4.4-3.6-8-8-8h-14m0 4h14c2.25 0 4 1.75 4 4v10c0 2.25-1.75 4-4 4h-6c-0.433 0-0.853 0.141-1.2 0.401l-4.8 3.6v-2c0-1.1-0.895-2-2-2-2.25 0-4-1.75-4-4v-10c0-2.25 1.75-4 4-4" data-unicode="H"/>
		</symbol>
		<symbol id="create" viewBox="0 0 32 32">
			<path d="m14 6v6c0 1.11-0.895 2-2 2h-6v4h6c1.11 0 2 0.895 2 2v6h4v-6c0-1.1 0.895-2 2-2h6v-4h-6c-1.11 0-2-0.895-2-2v-6h-4m-4-6c-5.5 0-10 4.5-10 10v12c0 5.5 4.49 10 10 10h12c5.5 0 10-4.5 10-10v-12c0-5.5-4.49-10-10-10h-12m0 4h12c3.36 0 6 2.64 6 6v12c0 3.36-2.64 6-6 6h-12c-3.36 0-6-2.64-6-6v-12c0-3.36 2.64-6 6-6" data-unicode="B"/>
		</symbol>
		<symbol id="delete1" viewBox="0 0 32 32">
			<path d="m12.5 5e-6c-0.828 0-1.5 0.672-1.5 1.5v4.99h3v-3.49h4v3.49h3v-4.99c0-0.828-0.672-1.5-1.5-1.5h-7m10 1.34v2.01c4.29 0.516 7 1.54 7 2.66 3e-3 1.66-5.82 3-13 3s-13-1.34-13-3c0.00201-1.03 2.3-1.97 6-2.52v-2.02c-0.941 0.133-1.84 0.284-2.64 0.469-1.28 0.296-2.37 0.64-3.29 1.15-0.463 0.253-0.899 0.542-1.3 0.99-0.332 0.375-0.625 0.928-0.726 1.56-0.02 0.124-0.041 0.248-0.041 0.373v2c0 0.121 0.022 0.24 0.041 0.361 0.099 0.637 0.392 1.19 0.726 1.57 0.398 0.448 0.834 0.739 1.3 0.992 0.128 0.07 0.267 0.129 0.401 0.193l1.38 15.1c0.203 2.22 1.97 3.59 3.94 4.47 1.97 0.876 4.45 1.35 7.22 1.35s5.24-0.472 7.22-1.35c1.97-0.876 3.74-2.25 3.94-4.47l1.38-15.1c0.133-0.064 0.271-0.124 0.399-0.194 0.463-0.252 0.899-0.544 1.3-0.992 0.335-0.377 0.628-0.934 0.727-1.57 0.019-0.121 0.04-0.241 0.041-0.361 1e-3 -0.122 0-1.33 0-2 0-0.128-0.022-0.254-0.043-0.381-0.103-0.629-0.394-1.18-0.725-1.55-0.397-0.448-0.833-0.737-1.3-0.99-0.926-0.506-2.01-0.85-3.29-1.15-1.08-0.248-2.32-0.44-3.64-0.593m-15.4 10.8c0.634 0.141 1.31 0.266 2.03 0.375l0.903 14.5c0.107 1.35-1.94 1.48-2 0.123l-0.934-15m18.9 0-0.934 14.9c-0.059 1.36-2.1 1.23-2-0.123l0.903-14.5c0.719-0.109 1.39-0.234 2.03-0.375m-13.3 0.748c0.652 0.044 1.32 0.078 2 0.1l0.32 15.4c0.028 1.33-1.97 1.38-2 0.043l-0.324-15.5m7.65 0-0.324 15.5c-0.03 1.33-2.03 1.29-2-0.043l0.321-15.4c0.687-0.021 1.35-0.055 2-0.1h-1e-3m-19.8-12.9" data-unicode="D"/>
		</symbol>
		<symbol id="delete2" viewBox="0 0 32 32">
			<path d="m14 5e-6c-1.47 0-2.75 0.811-3.44 2h-4.22c-3.47 0-6.33 2.86-6.33 6.33v1.67h2v15.7c0 3.47 2.86 6.33 6.33 6.33h15.3c3.47 0 6.33-2.86 6.33-6.33v-15.7h2v-1.67c0-3.47-2.86-6.33-6.33-6.33h-4.22c-0.695-1.19-1.97-2-3.44-2h-4m0 2h4c1.13 0 2 0.875 2 2h-8c0-1.12 0.875-2 2-2m-7.67 4h19.3c1.21 0 2.15 0.844 2.3 2h-23.9c0.155-1.16 1.09-2 2.3-2h1e-3m-0.334 4h20v15.7c0 1.33-1.01 2.33-2.33 2.33h-15.3c-1.33 0-2.33-1.01-2.33-2.33v-15.7m17 2h-2v14h2v-14m-4 0h-2v14h2v-14m-4 0h-2v14h2v-14m-4 0h-2v14h2v-14" data-unicode="C"/>
		</symbol>
		<symbol id="download" viewBox="0 0 32 32">
			<path d="m12 3v8h-4s8 8 8 8 8-8 8-8h-4v-8h-8m-4 12-8 7v7h32v-7l-8-7h-2l-2 2h4l3.33 5h-22.6s3.33-5 3.33-5h4l-2-2h-2" data-unicode="G"/>
		</symbol>
		<symbol id="edit1" viewBox="0 0 32 32">
			<path d="m5.76e-6 0.0944m22.2-0.0629c-1.03 0-2.05 0.39-2.83 1.17l-15 15c-0.121 0.121-0.209 0.269-0.255 0.433l-4.01 14c-0.216 0.756 0.483 1.45 1.24 1.24 0.561-0.161 9.35-2.67 14-4.01 0.164-0.0469 0.311-0.135 0.432-0.254 0.017-0.016 15-15 15-15 1.56-1.56 1.56-4.11 0-5.67l-5.77-5.77c-0.778-0.778-1.81-1.17-2.83-1.17v-1e-3m-3.13 4.3 1.59 1.59-12.6 12.6-1.59-1.59 12.6-12.6m3.01 3.01 2.59 2.59-12.6 12.6-2.59-2.59 12.6-12.6m4.01 4.01 1.59 1.59-12.6 12.6s-1.59-1.59-1.59-1.59l12.6-12.6m-20.5 7.51 7.61 7.61-6.18 1.77s-3.2-3.2-3.2-3.2l1.77-6.18m-5.57-18.8" data-unicode="E"/>
		</symbol>
		<symbol id="edit2" viewBox="0 0 32 32">
			<path d="m18.9 8.9c-0.561-7e-3 -1.04 0.172-1.37 0.514-0.919 0.934-0.546 2.83 0.832 4.23 1.38 1.4 3.24 1.78 4.16 0.846 0.919-0.934 0.547-2.83-0.832-4.23-0.824-0.838-1.87-1.35-2.78-1.36m-0.879-8.9c-2.56 0-5.12 0.972-7.07 2.91l-8.01 8.01c-1.94 1.94-2.93 4.51-2.93 7.07l0.014 14 14 0.014c2.55 0 5.12-0.984 7.07-2.93l8.01-8.01c3.89-3.89 3.89-10.2 0-14.1l-4.01-4.01c-1.94-1.94-4.51-2.91-7.07-2.91m0 3.97c1.53 0 3.06 0.59 4.24 1.77l4.01 4.01c2.36 2.36 2.36 6.12 0 8.48l-0.025 0.026c-2.36 2.36-6.12 2.36-8.48 0l-4.01-4.01c-2.36-2.36-2.36-6.12 0-8.48l0.025-0.026c1.18-1.18 2.71-1.77 4.24-1.77m-7.99 5.52c-0.0919 1.44 0.196 2.9 0.877 4.21l-6.89 6.89s-0.00201-2.6-0.00201-2.6c1e-3 -1.54 0.577-3.06 1.76-4.24l4.26-4.26m2.04 5.87c0.091 0.101 0.177 0.204 0.273 0.301l4.01 4.01c0.0969 0.097 0.2 0.183 0.301 0.273l-7.9 7.91c-2.3-0.491-4.09-2.28-4.58-4.58l7.9-7.91m6.25 5.75c1.31 0.681 2.77 0.969 4.21 0.877l-4.26 4.26c-1.18 1.18-2.7 1.76-4.24 1.76l-2.6-2e-3 6.89-6.89" data-unicode="J"/>
		</symbol>
		<symbol id="home2" viewBox="0 0 32 32">
			<path d="m16 5e-6c-1.54 0-3.08 0.581-4.24 1.74l-10.6 10.6c-0.781 0.781-0.781 2.05 0 2.83 0.781 0.781 2.05 0.781 2.83 0v10.8c0 3.29 2.71 6 6 6h12c3.29 0 6-2.71 6-6v-10.8c0.781 0.781 2.05 0.781 2.83 0 0.781-0.781 0.781-2.05 0-2.83l-10.6-10.6c-1.16-1.16-2.7-1.74-4.24-1.74m0 3.98c0.508 0 1.01 0.198 1.41 0.597l7.43 7.43h-17.7l7.43-7.43c0.398-0.399 0.906-0.597 1.41-0.597m-8 10h16v12c0 1.13-0.872 2-2 2h-2v-10h-8v10h-2c-1.13 0-2-0.872-2-2v-12m6 6h4v8h-4v-8" data-unicode="E"/>
		</symbol>
		<symbol id="menu_narrow" viewBox="0 0 32 32">
			<path d="m16 5e-6c-2.04 0-3.69 1.65-3.69 3.69s1.65 3.69 3.69 3.69 3.69-1.65 3.69-3.69-1.65-3.69-3.69-3.69m0 12.3c-2.04 0-3.69 1.65-3.69 3.69s1.65 3.69 3.69 3.69 3.69-1.65 3.69-3.69-1.65-3.69-3.69-3.69m0 12.3c-2.04 0-3.69 1.65-3.69 3.69s1.65 3.69 3.69 3.69 3.69-1.65 3.69-3.69-1.65-3.69-3.69-3.69" data-unicode="I"/>
		</symbol>
		<symbol id="menu_large" viewBox="0 0 32 32">
			<path d="m4.92 5e-6c-2.04 0-3.69 1.65-3.69 3.69s1.65 3.69 3.69 3.69h22.2c2.04 0 3.69-1.65 3.69-3.69s-1.65-3.69-3.69-3.69h-22.2m0 12.3c-2.04 0-3.69 1.65-3.69 3.69s1.65 3.69 3.69 3.69h22.2c2.04 0 3.69-1.65 3.69-3.69s-1.65-3.69-3.69-3.69h-22.2m0 12.3c-2.04 0-3.69 1.65-3.69 3.69s1.65 3.69 3.69 3.69h22.2c2.04 0 3.69-1.65 3.69-3.69s-1.65-3.69-3.69-3.69h-22.2" data-unicode="J"/>
		</symbol>
		<symbol id="ok" viewBox="0 0 32 32">
			<path d="m27 0.00101c-1.31-0.023-2.49 0.81-2.9 2.06l-7.14 20.6s-5.61-7.48-5.61-7.48c-1.38-1.85-4.25-1.5-5.15 0.621-0.42 0.985-0.284 2.12 0.36 2.98l8.99 12c1.39 1.84 4.25 1.5 5.15-0.624 0.027-0.0639 0.0519-0.129 0.0749-0.195l8.99-26c0.698-1.93-0.709-3.98-2.76-4.02v1e-3m-25 0.0389" data-unicode="W"/>
		</symbol>
		<symbol id="open" viewBox="0 0 32 32">
			<path d="m22 4c-0.758 0-1.45 0.428-1.79 1.1 0 0-0.447 0.895-0.447 0.895h-12.2c-1.04 0-1.9 0.793-1.99 1.83l-0.19 2.17h-3.38c-1.33 0-2.29 1.27-1.92 2.55l4 14c0.245 0.859 1.03 1.45 1.92 1.45h22c1.02 0 1.87-0.766 1.99-1.78l2-18c0.131-1.18-0.797-2.22-1.99-2.22h0.237l-0.448-0.895c-0.338-0.677-1.03-1.1-1.79-1.1h-6m0.588 3h4.75l0.75 1.5c0.15 0.298 0.45 0.486 0.793 0.498l-1.32 11.9s-2.56-8.97-2.56-8.97c-0.151-0.523-0.69-0.933-1.23-0.933h-15.5l0.174-2.02h12.4c0.403 1e-3 0.785-0.239 0.971-0.609l0.695-1.39m-19.3 5.99h20l3.44 12h-20l-3.44-12" data-unicode="O"/>
		</symbol>
		<symbol id="print" viewBox="0 0 32 32">
			<path d="m8 5e-6c-0.552 0-1 0.448-1 1v5h-1c-0.718 0-1.38 0.385-1.74 1.01l-4 7c-0.173 0.302-0.264 0.644-0.264 0.992v11c0 1.1 0.895 2 2 2h2.59s-2.29 2.29-2.29 2.29c-0.63 0.63-0.184 1.71 0.707 1.71h26c0.891 0 1.34-1.08 0.707-1.71l-2.29-2.29h2.59c1.11 0 2-0.895 2-2v-11c0-0.348-0.091-0.69-0.264-0.992l-4-7c-0.356-0.623-1.02-1.01-1.74-1.01h-1v-5c0-0.552-0.448-1-1-1h-16m1 2h14v10h2v-1.72l2.13 3.72h-22.2s2.13-3.72 2.13-3.72v1.72h2v-10m-5 14h24v8h-24v-8m5.41 10h13.2l4 4h-21.2s4-4 4-4" data-unicode="P"/>
		</symbol>
		<symbol id="save" viewBox="0 0 32 32">
			<path d="m4 5e-6c-2.22 0-4 1.78-4 4v24s4 4 4 4h24c2.22 0 4-1.78 4-4v-24c0-2.22-1.78-4-4-4h-24m0 4h24v14c0 1.11-0.892 2-2 2h-20c-1.11 0-2-0.892-2-2v-14m2 3v1h20v-1h-20m0 4v1h20v-1h-20m0 4v1h20v-1h-20m2 7h10c1.11 0 2 0.892 2 2v5h-14v-5c0-1.11 0.892-2 2-2m0 2v4h4v-4h-4" data-unicode="S"/>
		</symbol>
		<symbol id="stopwatch" viewBox="0 0 32 32">
			<path d="m11.3 5e-6v4.27h2.13v2.33c-6.15 1.04-10.7 6.37-10.7 12.6 0 7.07 5.73 12.8 12.8 12.8s12.8-5.73 12.8-12.8c-0.0032-2.66-0.833-5.24-2.37-7.41l3.15-3.15-3.02-3.02-3.15 3.15c-1.57-1.12-3.37-1.87-5.27-2.2v-2.31h2.13v-4.27h-8.53m4.27 10.7c4.71 0 8.53 3.82 8.53 8.53s-3.82 8.53-8.53 8.53-8.53-3.82-8.53-8.53 3.82-8.53 8.53-8.53m-0.0224 6.38c-1.64 2e-3 -2.67 1.78-1.84 3.2 0.0981 0.169 0.219 0.323 0.358 0.46l4.27 4.27c1.14 1.19 3.13 0.694 3.59-0.883 0.221-0.763 0.0011-1.58-0.572-2.13l-4.27-4.27c-0.402-0.414-0.955-0.646-1.53-0.646"/>
		</symbol>
		<symbol id="timer" viewBox="0 0 32 32">
			<path d="m4.57 5e-6c-1.26 0-2.29 1.02-2.29 2.29 0 5.71 2.62 10.9 6.65 13.7-4.03 2.84-6.65 8-6.65 13.7 0 1.26 1.02 2.29 2.29 2.29h22.8c1.26 0 2.29-1.02 2.29-2.29 0-5.71-2.62-10.9-6.65-13.7 4.03-2.84 6.65-8 6.65-13.7 0-1.26-1.02-2.29-2.29-2.29h-22.8m2.66 4.57h17.5c-0.582 3.45-2.34 6.25-4.63 7.83-1.14 0.787-1.85 2.12-1.85 3.6s0.711 2.81 1.85 3.6c2.29 1.58 4.05 4.38 4.63 7.83-1-3.21-6.48-3.43-7.24-6.79-0.616-2.72-1.08-6.55 0.995-8.29 1.07-0.904 2.47-1.76 2.82-3.14h-10.7c0.354 1.38 1.75 2.23 2.82 3.14 2.07 1.74 1.61 5.58 0.995 8.29-0.763 3.37-6.24 3.58-7.24 6.79 0.582-3.45 2.34-6.25 4.63-7.83 1.14-0.787 1.85-2.12 1.85-3.6s-0.711-2.81-1.85-3.6c-2.29-1.58-4.05-4.38-4.63-7.83"/>
		</symbol>
		<symbol id="top" viewBox="0 0 32 32">
			<path d="m20 0.00143c-0.52 8e-3 -1.02 0.218-1.38 0.586l-10 10c-1.09 1.09-0.589 2.95 0.898 3.35 0.168 0.045 0.342 0.068 0.516 0.068h2v2h-10c-1.1 0-2 0.895-2 2v12c0 1.1 0.896 2 2 2l6-2e-3c2.12-1e-3 4.16-0.847 5.66-2.34l12-12c0-1e-3 1e-3 -1e-3 2e-3 -2e-3 1.01-1.01 1.58-2.3 1.94-3.66h2.4c1.54-1e-3 2.5-1.67 1.73-3-0.087-0.151-0.193-0.29-0.317-0.413l-10-10c-0.382-0.382-0.902-0.594-1.44-0.586m0.029 3.41 7.59 7.59h-1.59c-0.551 0-0.999 0.447-1 0.998-1e-3 1.33-0.527 2.6-1.46 3.54l-8.55 8.54c0-0.03 0.017-0.058 0.017-0.088l-2e-3 -12c0-0.552-0.447-1-1-1h-1.59l7.59-7.59m-17 15.6h10l2e-3 5c-1e-3 1.28-0.485 2.55-1.46 3.53-0.94 0.938-2.21 1.47-3.54 1.47l-5 2e-3v-10" data-unicode="F"/>
		</symbol>
		<symbol id="beginner" viewBox="0 0 32 32">
			<path d="m24.9 1.04c-1.65-0.952-3.66-1.28-5.64-0.748-3.05 0.816-5.14 3.43-5.47 6.39-0.97-0.245-1.91-0.405-2.8-0.476-2.74-0.22-5.19 0.398-6.3 2.32-1.11 1.92-0.425 4.35 1.14 6.62 0.0422 0.0611 0.0877 0.122 0.131 0.183-0.658 0.623-1.24 1.35-1.71 2.17-2.66 4.6-1.07 10.5 3.53 13.2 4.6 2.66 10.5 1.07 13.2-3.53 0.475-0.823 0.813-1.69 1.02-2.57 0.075 7e-3 0.151 0.0162 0.225 0.0221 2.74 0.22 5.19-0.398 6.3-2.32 1.11-1.92 0.425-4.35-1.14-6.62-0.506-0.733-1.11-1.47-1.81-2.18 2.41-1.76 3.62-4.88 2.8-7.93-0.53-1.98-1.82-3.56-3.47-4.51zm-0.953 1.65c1.22 0.705 2.17 1.88 2.57 3.36 0.792 2.95-0.947 5.97-3.9 6.76-1.47 0.393-2.72 1.2-3.65 2.26-0.465-0.407-0.974-0.775-1.53-1.09-0.554-0.32-1.13-0.577-1.71-0.776 0.452-1.34 0.528-2.83 0.135-4.29-0.792-2.95 0.947-5.97 3.9-6.76 1.48-0.396 2.97-0.159 4.19 0.546zm-0.4 0.716c-2.28-1.32-5.23-0.528-6.54 1.75l1.66 0.959c0.798-1.38 2.54-1.85 3.92-1.05zm0.251 11c0.8 0.775 1.47 1.56 2 2.32 1.35 1.95 1.62 3.59 1.05 4.57-0.566 0.98-2.12 1.56-4.48 1.37-2.37-0.19-5.37-1.15-8.32-2.85s-5.28-3.82-6.63-5.78c-1.35-1.95-1.62-3.59-1.06-4.57 0.566-0.98 2.12-1.56 4.48-1.37 0.919 0.0738 1.93 0.266 3.01 0.572 0.0392 0.235 0.0892 0.471 0.152 0.706 0.396 1.48 0.156 2.96-0.551 4.19-0.21 0.363-0.461 0.702-0.748 1.01 1.28 0.0161 2.58 0.35 3.77 1.04 1.19 0.688 2.13 1.64 2.78 2.75 0.123-0.403 0.291-0.79 0.501-1.15 0.707-1.22 1.87-2.17 3.35-2.57 0.235-0.0631 0.464-0.137 0.688-0.221zm-3.71 9.85c-0.172 0.652-0.431 1.29-0.785 1.91-2.14 3.71-6.85 4.97-10.6 2.83-3.71-2.14-4.97-6.85-2.83-10.6 0.354-0.614 0.78-1.16 1.26-1.63 0.199 0.22 0.409 0.439 0.625 0.657-0.42 0.416-0.794 0.892-1.1 1.43-1.88 3.25-0.757 7.45 2.5 9.32 3.25 1.88 7.45 0.756 9.32-2.5 0.309-0.536 0.536-1.1 0.686-1.67 0.296 0.0781 0.59 0.15 0.88 0.213zm-2.71-0.784c-0.109 0.438-0.28 0.869-0.518 1.28-1.36 2.36-4.35 3.16-6.7 1.8-2.36-1.36-3.16-4.35-1.8-6.7 0.238-0.412 0.525-0.775 0.85-1.09 1.14 0.966 2.44 1.88 3.88 2.71 1.44 0.829 2.88 1.5 4.29 2z"/>
		</symbol>
		<symbol id="intermediate" viewBox="0 0 32 32">
			<path d="m16-5e-6c-2.79 0-5.57 1.06-7.69 3.18-4.24 4.24-4.24 11.1 0 15.4 1.39 1.39 2.23 3.12 2.51 4.93l-1.5 0.339 0.422 1.87 1.19-0.269v0.618l-1.62 0.364 0.422 1.87 1.19-0.269v0.618l-1.62 0.364 0.422 1.87 9.41-2.12v0.618l-3.36 0.757 0.422 1.87 6.47-1.46-0.422-1.87-1.19 0.269v-0.618l1.62-0.364-0.422-1.87-1.19 0.269v-0.618l1.62-0.364-0.422-1.87-1.12 0.252c0.243-1.9 1.09-3.73 2.55-5.19 4.24-4.24 4.24-11.1 0-15.4-2.12-2.12-4.91-3.18-7.69-3.18zm0 1.91c2.29 0 4.58 0.877 6.34 2.63 3.51 3.51 3.51 9.17 0 12.7-1.94 1.94-3 4.44-3.16 6.99l-6.33 1.43v-0.618l3.36-0.757-0.422-1.87-3.1 0.698c-0.366-2.15-1.37-4.21-3.03-5.86-3.51-3.51-3.51-9.17 0-12.7 1.75-1.75 4.05-2.63 6.34-2.63zm-2.06 1.28c-2.12 0.568-3.82 1.95-4.84 3.71l1.66 0.959c0.774-1.34 2.05-2.38 3.67-2.82zm5.21 23v0.618l-6.3 1.42v-0.618z"/>
		</symbol>
		<symbol id="column" viewBox="0 0 32 32">
			<path id="exemples" d="m8.84 6.28c-2.82 0-5.11 2.29-5.11 5.11v9.21c0 2.82 2.29 5.11 5.11 5.11h14.3c2.82 0 5.11-2.29 5.11-5.11v-9.21c0-2.82-2.29-5.11-5.11-5.11zm0 2.05h14.3c1.69 0 3.07 1.37 3.07 3.07v9.21c0 1.69-1.37 3.07-3.07 3.07h-14.3c-1.69 0-3.07-1.37-3.07-3.07v-9.21c0-1.69 1.39-3.33 3.07-3.07zm1.02 2.05v11.3h2.05v-11.3z"/>
		</symbol>
		<symbol id="summary" viewBox="0 0 32 32">
			<path id="concis" d="m6.79 5.77c-2.82 0-5.11 2.3-5.11 5.11v8.18c0 2.82 2.3 5.11 5.11 5.11h1.2c0.426 1.19 1.57 2.05 2.89 2.05h10.2c1.32 0 2.46-0.859 2.89-2.05h1.2c2.82 0 5.11-2.3 5.11-5.11v-8.18c0-2.82-2.3-5.11-5.11-5.11zm0 2.05h18.4c1.72 0 3.07 1.35 3.07 3.07v8.18c0 1.72-1.35 3.07-3.07 3.07h-1.02v-1.02c0-1.68-1.39-3.07-3.07-3.07h-10.2c-1.68 0-3.07 1.39-3.07 3.07v1.02h-1.02c-1.72 0-3.07-1.35-3.07-3.07v-8.18c0-1.72 1.35-3.07 3.07-3.07zm6.14 2.05v2.05h-0.599c-0.414 4e-5 -0.787 0.249-0.945 0.632-0.158 0.382-0.0707 0.822 0.222 1.11l3.67 3.67c0.192 0.192 0.452 0.3 0.723 0.3s0.531-0.108 0.723-0.3l3.67-3.67c0.292-0.293 0.38-0.732 0.222-1.11-0.158-0.382-0.531-0.632-0.945-0.632h-0.599v-2.05zm-2.05 10.2h10.2c0.584 0 1.02 0.439 1.02 1.02v2.05c0 0.584-0.439 1.02-1.02 1.02h-10.2c-0.584 0-1.02-0.439-1.02-1.02v-2.05c0-0.584 0.439-1.02 1.02-1.02z"/>
		</symbol>
		<symbol id="grid" viewBox="0 0 32 32">
			<path id="compact" d="m7.82 5.77c-2.27 0-4.09 1.82-4.09 4.09v4.09h8.18v-8.18zm6.14 0v8.18h14.3v-4.09c0-2.27-1.82-4.09-4.09-4.09zm-8.18 2.05h4.09v4.09h-4.09zm10.2 0h10.2v4.09h-10.2zm-12.3 8.18v6.14c0 2.27 1.82 4.09 4.09 4.09h4.09v-10.2zm10.2 0v10.2h10.2c2.27 0 4.09-1.82 4.09-4.09v-6.14zm-8.18 2.05h4.09v6.14h-4.09zm10.2 0h10.2v6.14h-10.2z"/>
		</symbol>
		<symbol id="expert" viewBox="0 0 32 32">
			<path d="m16 3.23-15.9 8.37 3.27 1.72v2.49c-1.26 0.409-2.18 1.6-2.18 2.99 0 0.66 0.208 1.27 0.562 1.78-0.361 1.32-0.562 2.95-0.562 4.74v0.959h6.29v-0.959c0-0.0545-0.00191-0.107-0.00221-0.162 3.23 0.344 6.17 1.64 8.54 3.61 2.78-2.31 6.36-3.7 10.3-3.7h0.959v-0.959c0-3.2-0.841-6.22-2.31-8.83l7-3.68zm0 1.97 12.2 6.4-12.2 6.4-10.7-5.64v-5e-3h-0.00873l-1.44-0.756 3.26-1.71 8.63 2.63 0.559-1.83-6.78-2.07zm-10.7 9.13 1.81 0.953c-0.226 0.4-0.437 0.81-0.632 1.23-0.335-0.313-0.736-0.556-1.18-0.7zm17.9 1.85c1.19 2.09 1.92 4.48 2.06 7.03-3.44 0.188-6.62 1.34-9.28 3.19-2.49-1.74-5.45-2.85-8.64-3.14-0.0769-0.813-0.199-1.57-0.362-2.26 0.0705-0.361 0.151-0.718 0.245-1.07 0.0659-0.169 0.117-0.346 0.152-0.527 0.345-1.13 0.813-2.21 1.39-3.22l7.21 3.79zm-18.9 1.4c0.688 0 1.22 0.537 1.22 1.22 0 0.688-0.537 1.22-1.22 1.22-0.688 0-1.22-0.537-1.22-1.22 0-0.688 0.537-1.22 1.22-1.22zm-0.896 4.24c0.284 0.0856 0.585 0.132 0.896 0.132s0.611-0.0465 0.895-0.132c0.148 0.747 0.252 1.62 0.297 2.56h-2.38c0.0448-0.937 0.149-1.81 0.297-2.56z"/>
		</symbol>
		<symbol id="tuteos" viewBox="0 0 32 32">
			<path d="m6.64 15.7-1.92 2 11.3 11.3 11.3-11.3-1.92-2-9.36 4.64-8-4zm9.36-12.6 16 8-16 8-16-8z"/>
		</symbol>
		<symbol id="github" viewBox="0 0 32 32">
			<path d="m16 0.395c-8.84 0-16 7.16-16 16 0 7.08 4.58 13.1 10.9 15.2 0.8 0.14 1.1-0.34 1.1-0.76 0-0.38-0.02-1.64-0.02-2.98-4.02 0.74-5.06-0.98-5.38-1.88-0.18-0.46-0.96-1.88-1.64-2.26-0.56-0.3-1.36-1.04-0.02-1.06 1.26-0.02 2.16 1.16 2.46 1.64 1.44 2.42 3.74 1.74 4.66 1.32 0.14-1.04 0.56-1.74 1.02-2.14-3.56-0.4-7.28-1.78-7.28-7.9 0-1.74 0.62-3.18 1.64-4.3-0.16-0.4-0.72-2.04 0.16-4.24 0 0 1.34-0.42 4.4 1.64 1.28-0.36 2.64-0.54 4-0.54s2.72 0.18 4 0.54c3.06-2.08 4.4-1.64 4.4-1.64 0.88 2.2 0.32 3.84 0.16 4.24 1.02 1.12 1.64 2.54 1.64 4.3 0 6.14-3.74 7.5-7.3 7.9 0.58 0.5 1.08 1.46 1.08 2.96 0 2.14-0.02 3.86-0.02 4.4 0 0.42 0.3 0.92 1.1 0.76 6.32-2.12 10.9-8.12 10.9-15.2 0-8.84-7.16-16-16-16z"/>
		</symbol>
		<symbol id="copy2" viewBox="0 0 32 32">
			<path d="m8 24v2h16v-2zm0-4v2h16v-2zm0-4v2h16v-2zm0-4v2h16v-2zm6-12c-1.47 0-2.75 0.811-3.44 2h-2.22c-3.47 0-6.33 2.86-6.33 6.33v17.3c0 3.47 2.86 6.33 6.33 6.33h15.3c3.47 0 6.33-2.86 6.33-6.33v-17.3c0-3.47-2.86-6.33-6.33-6.33h-2.22c-0.696-1.19-1.97-2-3.44-2zm0 2h4c1.13 0 2 0.875 2 2v4h-8v-4c0-1.13 0.875-2 2-2zm-5.67 4h1.67v4h12v-4h1.67c1.33 0 2.33 1.01 2.33 2.33v17.3c0 1.33-1.01 2.33-2.33 2.33h-15.3c-1.33 0-2.33-1.01-2.33-2.33v-17.3c0-1.33 1.01-2.33 2.33-2.33z"/>
		</symbol>
		<symbol id="copy1" viewBox="0 0 32 32">
			<path d="m12 2c-1.48 0-2.75 0.809-3.45 2h-2.55c-2.21 0-4 1.79-4 4v18c0 2.21 1.79 4 4 4h16c2.21 0 4-1.79 4-4v-2h-2v2c-5e-5 0.132-0.0165 0.259-0.0391 0.381-4e-3 0.0205-0.0091 0.0403-0.0137 0.0605-0.0189 0.0869-0.0468 0.167-0.0762 0.248-0.0559 0.152-0.124 0.298-0.213 0.43-0.0288 0.0425-0.0639 0.0774-0.0957 0.117-0.0749 0.0946-0.157 0.18-0.248 0.26-0.0403 0.0349-0.0782 0.07-0.121 0.102-0.132 0.0988-0.273 0.186-0.428 0.25-0.147 0.061-0.306 0.0967-0.469 0.121-0.0588 9e-3 -0.116 0.0154-0.176 0.0195-0.0409 3e-3 -0.0796 0.0117-0.121 0.0117h-16c-1.1 0-2-0.895-2-2v-18c0-1.1 0.895-2 2-2h2v4h11.2l0.828-0.828v-3.17h2c1.1 0 2 0.895 2 2v4h2v-4c0-2.21-1.79-4-4-4h-2.55c-0.693-1.19-1.97-2-3.45-2zm0 2h4c1.1 0 2 0.895 2 2v2h-8v-2c0-1.1 0.895-2 2-2zm10 6-8 8 8 8v-4h8v-8h-8zm-16 2v2h9.17l2-2zm0 4v2h6c0-0.512 0.196-1.02 0.586-1.41l0.586-0.586zm0 4v2h9.17l-2-2zm0 4v2h13.2l-2-2z"/>
		</symbol>
		<symbol id="web3" viewBox="0 0 32 32">
			<path d="m20.4 1.68-3.71 3.71 7.07 7.07c0.781 0.781 0.781 2.05 0 2.83-0.781 0.781-2.05 0.781-2.83 0l-7.07-7.07-5.66 5.66 7.07 7.07c0.781 0.781 0.781 2.05 0 2.83-0.781 0.781-2.05 0.781-2.83 0l-7.07-7.07-3.71 3.71a15 15 0 0 0 3.71 6.19 15 15 0 0 0 14.2 3.93c0.463-0.326 0.908-0.686 1.32-1.1 1.59-1.59 2.53-3.59 2.82-5.67 2.07-0.293 4.07-1.22 5.67-2.82 0.416-0.416 0.778-0.865 1.11-1.33a15 15 0 0 0-3.93-14.2 15 15 0 0 0-6.19-3.71zm11.6 14.3a16 16 0 0 1-16 16 16 16 0 0 1-16-16 16 16 0 0 1 16-16 16 16 0 0 1 16 16z"/>
		</symbol>
		<symbol id="playlist" viewBox="64 96 32 32">
			<path d="m76 101c12 0 12 0 12 8.31s0 8.31-12 8.31-12-0.356-12-8.31c0-8.31 0-8.31 12-8.31zm-2.26 4.6v7.43l5.95-3.71zm20 1.75c0.91 1.17 0.921 3.19 0.921 6.71 0 8.31-1e-3 8.31-12 8.31-5.07 0-7.97-0.0688-9.65-0.748 1.26 1.58 4.18 1.7 11 1.7 12 0 12 0 12-8.31 0-4.77-0.0124-6.79-2.27-7.66zm-2.7-1.9c0.91 1.17 0.921 3.19 0.921 6.71 0 8.31 0.0014 8.31-12 8.31-5.07 0-7.97-0.0726-9.66-0.753 1.26 1.58 4.18 1.7 11 1.7 12 0 12 2e-3 12-8.31 0-4.77-0.0108-6.8-2.27-7.66zm-2.69-1.9c0.908 1.17 0.919 3.19 0.919 6.71 0 8.31-1e-3 8.31-12 8.31-5.07 0-7.97-0.0688-9.65-0.748 1.26 1.58 4.18 1.7 11 1.7 12 0 12 0 12-8.31 0-4.77-0.0125-6.79-2.27-7.66z"/>
		</symbol>
		<symbol id="youtube" viewBox="96 96 32 32">
			<path d="m112 101c16 0 16 0 16 11.1s0 11.1-16 11.1-16-0.476-16-11.1c0-11.1 0-11.1 16-11.1zm-3.03 6.15v9.94l7.96-4.97z"/>
		</symbol>
		<symbol id="first" viewBox="0 0 32 32">
			<path d="m21 2-13 13v-9h-6v22h6v-9l13 13v-11h9v-8h-9z"/>
		</symbol>
		<symbol id="previous" viewBox="0 0 32 32">
			<path d="m19 2-15 15 15 15v-11h9v-8h-9z"/>
		</symbol>
		<symbol id="next" viewBox="0 0 32 32">
			<path d="m13 2 15 15-15 15v-11h-9v-8h9z"/>
		</symbol>
		<symbol id="last" viewBox="0 0 32 32">
			<path d="m11 2 13 13v-9h6v22h-6v-9l-13 13v-11h-9v-8h9z"/>
		</symbol>
	</defs>
	<use transform="translate(0)" width="32" height="32" xlink:href="#alarm"/>
	<use transform="translate(32)" width="32" height="32" xlink:href="#stopwatch"/>
	<use transform="translate(64)" width="32" height="32" xlink:href="#timer"/>
	<use transform="translate(96)" width="32" height="32" xlink:href="#edit1"/>
	<use transform="translate(128)" width="32" height="32" xlink:href="#edit2"/>
	<use transform="translate(160)" width="32" height="32" xlink:href="#ok"/>
	<use transform="translate(192)" width="32" height="32" xlink:href="#cancel"/>
	<use transform="translate(224)" width="32" height="32" xlink:href="#delete1"/>
	<use transform="translate(256)" width="32" height="32" xlink:href="#delete2"/>
	<use transform="translate(288)" width="32" height="32" xlink:href="#home1"/>
	<use transform="translate(320)" width="32" height="32" xlink:href="#home2"/>
	<use transform="translate(352)" width="32" height="32" xlink:href="#blank"/>
	<use transform="translate(384)" width="32" height="32" xlink:href="#comment_add"/>
	<use transform="translate(416)" width="32" height="32" xlink:href="#comment_delete"/>
	<use transform="translate(448)" width="32" height="32" xlink:href="#comment_list"/>
	<use transform="translate(480)" width="32" height="32" xlink:href="#create"/>
	<use transform="translate(0,32)" width="32" height="32" xlink:href="#copy1"/>
	<use transform="translate(32 32)" width="32" height="32" xlink:href="#copy2"/>
	<use transform="translate(64 32)" width="32" height="32" xlink:href="#grid"/>
	<use transform="translate(96 32)" width="32" height="32" xlink:href="#save"/>
	<use transform="translate(128 32)" width="32" height="32" xlink:href="#column"/>
	<use transform="translate(160 32)" width="32" height="32" xlink:href="#print"/>
	<use transform="translate(192 32)" width="32" height="32" xlink:href="#summary"/>
	<use transform="translate(224 32)" width="32" height="32" xlink:href="#open"/>
	<use transform="translate(256 32)" width="32" height="32" xlink:href="#intermediate"/>
	<use transform="translate(288 32)" width="32" height="32" xlink:href="#beginner"/>
	<use transform="translate(320 32)" width="32" height="32" xlink:href="#download"/>
	<use transform="translate(352 32)" width="32" height="32" xlink:href="#complet"/>
	<use transform="translate(384 32)" width="32" height="32" xlink:href="#menu_narrow"/>
	<use transform="translate(416 32)" width="32" height="32" xlink:href="#expert"/>
	<use transform="translate(448 32)" width="32" height="32" xlink:href="#menu_large"/>
	<use transform="translate(480 32)" width="32" height="32" xlink:href="#top"/>
	<use transform="translate(0 64)" width="32" height="32" xlink:href="#first"/>
	<use transform="translate(32 64)" width="32" height="32" xlink:href="#previous"/>
	<use transform="translate(64 64)" width="32" height="32" xlink:href="#next"/>
	<use transform="translate(96 64)" width="32" height="32" xlink:href="#last"/>
	<use transform="translate(0 96)" width="32" height="32" xlink:href="#github"/>
	<use transform="translate(32 96)" width="32" height="32" xlink:href="#tuteos"/>
	<use transform="translate(64 96)" width="32" height="32" xlink:href="#youtube"/>
	<use transform="translate(96 96)" width="32" height="32" xlink:href="#playlist"/>
	<use transform="translate(128,96)" width="32" height="32" xlink:href="#web3"/>
</svg>
