<svg width="342" height="270" version="1.1" viewBox="0 0 342 270" xmlns="http://www.w3.org/2000/svg">
	<g>
		<path d="m113 78.9-12.4 12.4 70.7 70.7 70.7-70.7-12.4-12.4-58.3 29.1-50-25zm58.3-78.9 100 50-100 50-100-50z"/>
		<path d="m117 178v18h18v71.9h18v-71.9h18v-18zm-117 0v18h18v71.9h18v-71.9h18v-18zm316 1e-5c-14.9 0-27 12.1-27 27 0 14.9 12.1 27 27 27 4.96 0 8.99 4.02 8.99 8.99s-4.02 8.99-8.99 8.99h-25.2v18h25.2c14.9 0 27-12.1 27-27 0-14.9-12.1-27-27-27-4.96 0-8.99-4.02-8.99-8.99 0-4.96 4.02-8.99 8.99-8.99h25.2v-18zm-58.4-1.78c-14.9 0-27 12.1-27 27v39.5c0 14.9 12.1 27 27 27 14.9 0 27-12.1 27-27v-39.5c0-14.9-12.1-27-27-27zm0 18c4.96 0 8.99 4.02 8.99 8.99v39.5c0 4.96-4.02 8.99-8.99 8.99-4.96 0-8.99-4.02-8.99-8.99v-39.5c0-4.96 4.02-8.99 8.99-8.99zm-199-16.2v64.7c0 14.9 12.1 27 27 27 14.9 0 27-12.1 27-27v-64.7h-18v64.7c0 4.96-4.02 8.99-8.99 8.99-4.96 0-8.99-4.02-8.99-8.99v-64.7zm142 0c-14.9 0-27 12.1-27 27v36c0 14.9 12.1 27 27 27h27v-18h-27c-4.96 0-8.99-4.02-8.99-8.99v-8.99h27v-18h-27v-8.99c0-4.96 4.02-8.99 8.99-8.99h27v-18z"/>
	</g>
</svg>
