<svg width="594.47" height="170" version="1.1" viewBox="0 0 594.47 170" xmlns="http://www.w3.org/2000/svg">
	<g transform="translate(-128.11 -317.23)">
		<path d="m173.99 400.09-12.43 12.43 70.711 70.711 70.711-70.711-12.43-12.43-58.281 29.141-50-25zm58.281-78.859 100 50-100 50-100-50z" fill="#800080"/>
		<path d="m465.13 374.32v20.182h20.182v80.729h20.182v-80.729h20.182v-20.182zm-131.19 0v20.182h20.182v80.729h20.182v-80.729h20.182v-20.182zm354.2 1e-5c-16.72 0-30.274 13.554-30.274 30.273 0 16.72 13.554 30.273 30.274 30.273 5.5732 0 10.091 4.518 10.091 10.091s-4.518 10.091-10.091 10.091h-28.274v20.182h28.274c16.72 0 30.273-13.554 30.273-30.274 0-16.72-13.554-30.273-30.273-30.273-5.5732 0-10.091-4.518-10.091-10.091s4.518-10.091 10.091-10.091h28.273v-20.182zm-65.593-2c-16.72 0-30.273 13.554-30.273 30.273v44.365c0 16.72 13.554 30.274 30.273 30.274s30.273-13.554 30.273-30.274v-44.365c0-16.72-13.554-30.273-30.273-30.273zm0 20.182c5.5732 0 10.091 4.518 10.091 10.091v44.365c0 5.5732-4.518 10.091-10.091 10.091-5.5732 0-10.091-4.518-10.091-10.091v-44.365c0-5.5732 4.518-10.091 10.091-10.091zm-223.01-18.182v72.638c0 16.72 13.554 30.274 30.273 30.274 16.72 0 30.273-13.554 30.273-30.274v-72.638h-20.182v72.638c0 5.5732-4.518 10.091-10.091 10.091-5.5732 0-10.091-4.518-10.091-10.091v-72.638zm159.44 0c-16.72 0-30.274 13.554-30.274 30.273v40.365c0 16.72 13.554 30.274 30.274 30.274h30.273v-20.182h-30.273c-5.5732 0-10.091-4.518-10.091-10.091v-10.091h30.274v-20.182h-30.274v-10.091c0-5.5732 4.518-10.091 10.091-10.091h30.273v-20.182z" fill="#0074b0"/>
	</g>
</svg>
