<svg width="16" height="16" version="1.1" viewBox="0 0 32 32" xmlns="http://www.w3.org/2000/svg">
	<path d="m4 28 2 2h20l2-2v-22l-2-2h-6v-2h-8v2h-6l-2 2z" fill="#fff"/>
	<path d="m8 24v2h16v-2zm0-4v2h16v-2zm0-4v2h16v-2zm0-4v2h16v-2zm6-12c-1.4683 0-2.7457 0.81149-3.4414 2h-2.2246c-3.4741 0-6.334 2.8599-6.334 6.334v17.332c0 3.4741 2.8599 6.334 6.334 6.334h15.332c3.4741 0 6.334-2.8599 6.334-6.334v-17.332c0-3.4741-2.8599-6.334-6.334-6.334h-2.2246c-0.69575-1.1885-1.9731-2-3.4414-2zm0 2h4c1.1253 0 2 0.8747 2 2v4h-8v-4c0-1.1253 0.8747-2 2-2zm-5.666 4h1.666v4h12v-4h1.666c1.3273 0 2.334 1.0067 2.334 2.334v17.332c0 1.3272-1.0067 2.334-2.334 2.334h-15.332c-1.3273 0-2.334-1.0067-2.334-2.334v-17.332c0-1.3273 1.0067-2.334 2.334-2.334z" fill="hsl(46, 100%, 0%)"/>
</svg>
