<?xml version="1.0" encoding="UTF-8" standalone="no"?>
<svg xmlns="http://www.w3.org/2000/svg" version="1.1" viewBox="0 0 32 32" width="16" height="16">
	<path d="m 24,3.9992925 v 4 H 8 v -4 z m 0,6 V 11.999292 H 8 V 9.9992925 Z m 0,3.9999995 v 2 H 8 v -2 z m 0,4 v 2 H 8 v -2 z m 0,4 v 2 H 13.558594 C 11.75257,23.520002 9.834268,23.513312 8,23.950462 v -1.95117 z m 0,4 v 1.19531 c -1.852112,1.17827 -4.249559,1.03951 -5.878906,-0.58984 -0.215315,-0.21531 -0.43951,-0.41445 -0.667969,-0.60547 z M 27,-3.475e-4 a 1.0001,1.0001 0 0 1 1,1 V 28.728172 a 1.0001,1.0001 0 0 1 -0.292969,0.70703 c -3.419714,3.41973 -8.994346,3.41973 -12.414062,0 -2.655418,-2.65542 -6.930519,-2.65542 -9.585938,0 A 1.0001,1.0001 0 0 1 4,28.728172 V 0.9996525 a 1.0001,1.0001 0 0 1 1,-1 z m -1,2 H 6 V 26.890282 c 3.378005,-2.05931 7.79006,-1.78612 10.707031,1.13086 2.568687,2.56869 6.625286,2.5962 9.292969,0.19531 z" fill-rule="evenodd" fill="#FFF"/>
</svg>
